HIERARCHY
ROOT Hips
{
  OFFSET 62.3042 91.6609 27.6443
  CHANNELS 6 Xposition Yposition Zposition Zrotation Xrotation Yrotation
  JOINT spine
  {
    OFFSET 0 6.84637 0.3937
    CHANNELS 3 Zrotation Xrotation Yrotation
    JOINT spine1
    {
      OFFSET 0 9.49621 0
      CHANNELS 3 Zrotation Xrotation Yrotation
      JOINT spine2
      {
        OFFSET 0 9.09909 0
        CHANNELS 3 Zrotation Xrotation Yrotation
        JOINT Neck
        {
          OFFSET 0 23.3612 1.11378
          CHANNELS 3 Zrotation Xrotation Yrotation
          JOINT Head
          {
            OFFSET 0 7.05802 0
            CHANNELS 3 Zrotation Xrotation Yrotation
            End Site
            {
              OFFSET 0 17.0844 -5.63418
            }
          }
        }
        JOINT RightShoulder
        {
          OFFSET -3.83136 9.82631 -0.533491
          CHANNELS 3 Zrotation Xrotation Yrotation
          JOINT RightArm
          {
            OFFSET 0 12.8881 0
            CHANNELS 3 Zrotation Xrotation Yrotation
            JOINT RightArmRoll
            {
              OFFSET 0 6.50617 0
              CHANNELS 3 Zrotation Xrotation Yrotation
              JOINT RightForeArm
              {
                OFFSET 0 18.9501 0
                CHANNELS 3 Zrotation Xrotation Yrotation
                JOINT RightForeArmRoll
                {
                  OFFSET 0 7.30093 0
                  CHANNELS 3 Zrotation Xrotation Yrotation
                  JOINT RightHand
                  {
                    OFFSET 0 14.6514 0
                    CHANNELS 3 Zrotation Xrotation Yrotation
                    End Site
                    {
                      OFFSET 0 0 0
                    }
                  }
                }
              }
            }
          }
        }
        JOINT LeftShoulder
        {
          OFFSET 3.83136 9.82631 -0.533491
          CHANNELS 3 Zrotation Xrotation Yrotation
          JOINT LeftArm
          {
            OFFSET 0 12.8881 0
            CHANNELS 3 Zrotation Xrotation Yrotation
            JOINT LeftArmRoll
            {
              OFFSET 0 6.50617 0
              CHANNELS 3 Zrotation Xrotation Yrotation
              JOINT LeftForeArm
              {
                OFFSET 0 18.9501 0
                CHANNELS 3 Zrotation Xrotation Yrotation
                JOINT LeftForeArmRoll
                {
                  OFFSET 0 7.30092 0
                  CHANNELS 3 Zrotation Xrotation Yrotation
                  JOINT LeftHand
                  {
                    OFFSET 0 14.6514 0
                    CHANNELS 3 Zrotation Xrotation Yrotation
                    End Site
                    {
                      OFFSET 0 0 0
                    }
                  }
                }
              }
            }
          }
        }
      }
    }
  }
  JOINT RightUpLeg
  {
    OFFSET -6.06837 -1.11278 -0.933477
    CHANNELS 3 Zrotation Xrotation Yrotation
    JOINT RightUpLegRoll
    {
      OFFSET 0 17.1796 0
      CHANNELS 3 Zrotation Xrotation Yrotation
      JOINT RightLeg
      {
        OFFSET 0 -21.2743 0
        CHANNELS 3 Zrotation Xrotation Yrotation
        JOINT RightLegRoll
        {
          OFFSET 0 21.3439 0
          CHANNELS 3 Zrotation Xrotation Yrotation
          JOINT RightFoot
          {
            OFFSET 0 17.7652 0
            CHANNELS 3 Zrotation Xrotation Yrotation
            JOINT RightToeBase
            {
              OFFSET 0 14.8508 0
              CHANNELS 3 Zrotation Xrotation Yrotation
              End Site
              {
                OFFSET 0.0062947 7.19214 -0.829004
              }
            }
          }
        }
      }
    }
  }
  JOINT LeftUpLeg
  {
    OFFSET 6.06837 -1.11278 -0.933477
    CHANNELS 3 Zrotation Xrotation Yrotation
    JOINT LeftUpLegRoll
    {
      OFFSET 0 17.1797 0
      CHANNELS 3 Zrotation Xrotation Yrotation
      JOINT LeftLeg
      {
        OFFSET 0 21.2742 0
        CHANNELS 3 Zrotation Xrotation Yrotation
        JOINT LeftLegRoll
        {
          OFFSET 0 21.5412 0
          CHANNELS 3 Zrotation Xrotation Yrotation
          JOINT LeftFoot
          {
            OFFSET 0 17.5679 0
            CHANNELS 3 Zrotation Xrotation Yrotation
            JOINT LeftToeBase
            {
              OFFSET 0 14.8508 0
              CHANNELS 3 Zrotation Xrotation Yrotation
              End Site
              {
                OFFSET -0.0282102 7.19214 -0.829005
              }
            }
          }
        }
      }
    }
  }
}
MOTION
Frames: 13
Frame Time: 0.00208333
54.6424 91.5589 9.50036 -3.53349 -1.92137 -0.181557 1.00855 -0.636734 -0.394191 2.01836 2.72074 -0.893021 2.03146 4.36514 -0.927567 -9.48804 19.9723 1.82185 7.49359 -10.6998 -0.211189 68.2607 6.3177 2.11593 105.719 4.33797 14.5095 -3.3499e-005 -6.17754e-007 -3.20489e-006 9.27476 15.7604 -2.51951 -3.53652e-006 -1.52292e-006 -3.01027 8.02904 -4.95146 0.697674 -69.9528 1.13105 0.724944 -106.714 9.90017 -21.8135 1.21616e-006 1.18563e-006 3.16872e-006 -10.6039 6.8865 1.15327 1.49246e-005 -2.18809e-006 3.00604 -8.02893 -4.95146 -0.697678 -179.293 0.433062 -1.56531 -180 7.01554e-015 178.954 178.057 5.28243 179.916 -1.49799e-006 -6.72004e-007 0.0316828 -18.4977 67.6851 19.2814 8.13522 25.2327 -3.4872 -173.259 -1.27431 -1.4653 4.54188e-006 -4.6773e-006 -1.13906 -1.91543 -8.68783 0.128352 1.73906e-006 2.8036e-007 -0.17176 19.9297 69.4131 -20.7897 -8.13236 25.2329 3.48597 
54.6532 91.5556 9.48746 -3.54498 -1.88656 -0.192036 1.01026 -0.638823 -0.392163 2.0217 2.71656 -0.891444 2.03478 4.36096 -0.926049 -9.46607 19.9666 1.8172 7.48273 -10.7117 -0.208715 68.2836 6.32829 2.11709 105.719 4.35973 14.4982 -3.3499e-005 -6.17754e-007 -3.20489e-006 9.27459 15.8062 -2.52455 -3.53652e-006 -1.52292e-006 -3.01027 8.02904 -4.95146 0.697674 -69.9245 1.11726 0.72825 -106.753 9.90138 -21.7955 1.21616e-006 1.18563e-006 3.16872e-006 -10.6084 6.9107 1.15688 1.49246e-005 -2.18809e-006 3.00604 -8.02893 -4.95146 -0.697678 -179.272 0.493203 -1.58926 -180 7.01554e-015 178.955 178.073 5.31587 179.914 -1.49799e-006 -6.72004e-007 0.0316846 -18.4864 67.6696 19.269 8.13522 25.2327 -3.4872 -173.251 -1.21237 -1.46458 4.54188e-006 -4.6773e-006 -1.13843 -1.90958 -8.73635 0.129533 1.73906e-006 2.8036e-007 -0.172593 19.9429 69.4268 -20.8039 -8.13236 25.2329 3.48597 
54.6551 91.5562 9.48759 -3.55647 -1.85304 -0.202145 1.01201 -0.640631 -0.390106 2.02507 2.71295 -0.889952 2.03813 4.35734 -0.924616 -9.44358 19.96 1.81223 7.47143 -10.723 -0.206441 68.3063 6.33847 2.11809 105.72 4.38074 14.4855 -3.3499e-005 -6.17754e-007 -3.20489e-006 9.27528 15.8539 -2.52989 -3.53652e-006 -1.52292e-006 -3.01027 8.02904 -4.95146 0.697674 -69.8952 1.10279 0.731783 -106.793 9.90272 -21.7776 1.21616e-006 1.18563e-006 3.16872e-006 -10.6127 6.93441 1.1604 1.49246e-005 -2.18809e-006 3.00604 -8.02893 -4.95146 -0.697678 -179.25 0.551285 -1.61418 -180 7.01554e-015 178.955 178.089 5.34866 179.912 -1.49799e-006 -6.72004e-007 0.0316871 -18.4756 67.6548 19.2572 8.13522 25.2327 -3.4872 -173.243 -1.15199 -1.46329 4.54188e-006 -4.6773e-006 -1.13782 -1.90305 -8.78479 0.130754 1.73906e-006 2.8036e-007 -0.173428 19.9564 69.4408 -20.8184 -8.13236 25.2329 3.48597 
54.6488 91.554 9.50692 -3.56795 -1.82042 -0.211994 1.01378 -0.642243 -0.388027 2.02846 2.70972 -0.888519 2.0415 4.35411 -0.923244 -9.42072 19.9528 1.80703 7.45983 -10.7337 -0.204308 68.3288 6.34836 2.11897 105.722 4.40122 14.4718 -3.3499e-005 -6.17754e-007 -3.20489e-006 9.27658 15.9029 -2.53544 -3.53652e-006 -1.52292e-006 -3.01027 8.02904 -4.95146 0.697674 -69.8653 1.08784 0.735475 -106.834 9.90416 -21.7596 1.21616e-006 1.18563e-006 3.16872e-006 -10.6168 6.95777 1.16386 1.49246e-005 -2.18809e-006 3.00604 -8.02893 -4.95146 -0.697678 -179.228 0.607924 -1.63978 -180 7.01554e-015 178.956 178.107 5.38104 179.911 -1.49799e-006 -6.72004e-007 0.0316903 -18.4653 67.6405 19.2458 8.13522 25.2327 -3.4872 -173.235 -1.0927 -1.46159 4.54188e-006 -4.6773e-006 -1.13723 -1.89603 -8.83317 0.132003 1.73906e-006 2.8036e-007 -0.174263 19.9701 69.4549 -20.8332 -8.13236 25.2329 3.48597 
54.6514 91.5502 9.49901 -3.57941 -1.78832 -0.221695 1.01556 -0.643743 -0.385936 2.03186 2.70672 -0.88712 2.04488 4.35111 -0.921905 -9.39766 19.9453 1.80171 7.44805 -10.7441 -0.202255 68.3512 6.3581 2.11979 105.724 4.4214 14.4576 -3.3499e-005 -6.17754e-007 -3.20489e-006 9.27824 15.9527 -2.54113 -3.53652e-006 -1.52292e-006 -3.01027 8.02904 -4.95146 0.697674 -69.8351 1.07262 0.739258 -106.875 9.90565 -21.7416 1.21616e-006 1.18563e-006 3.16872e-006 -10.6207 6.98095 1.16728 1.49246e-005 -2.18809e-006 3.00604 -8.02893 -4.95146 -0.697678 -179.205 0.663739 -1.66576 -180 7.01555e-015 178.957 178.125 5.41314 179.909 -1.49799e-006 -6.72004e-007 0.0316939 -18.4552 67.6265 19.2347 8.13522 25.2327 -3.4872 -173.228 -1.03403 -1.45967 4.54188e-006 -4.6773e-006 -1.13665 -1.88874 -8.88151 0.133268 1.73906e-006 2.8036e-007 -0.175098 19.984 69.4692 -20.8482 -8.13236 25.2329 3.48597 
54.6457 91.5472 9.49262 -3.59087 -1.75635 -0.231358 1.01735 -0.645214 -0.383842 2.03527 2.70377 -0.885729 2.04826 4.34816 -0.920575 -9.37455 19.9378 1.79636 7.43622 -10.7545 -0.200222 68.3735 6.36779 2.1206 105.726 4.4415 14.4432 -3.3499e-005 -6.17754e-007 -3.20489e-006 9.27999 16.0027 -2.54684 -3.53652e-006 -1.52292e-006 -3.01027 8.02904 -4.95146 0.697674 -69.8048 1.05733 0.743065 -106.917 9.90716 -21.7237 1.21616e-006 1.18563e-006 3.16872e-006 -10.6247 7.00407 1.1707 1.49246e-005 -2.18809e-006 3.00604 -8.02893 -4.95146 -0.697678 -179.182 0.719346 -1.69184 -180 7.01555e-015 178.957 178.143 5.4452 179.907 -1.49799e-006 -6.72004e-007 0.0316975 -18.4451 67.6126 19.2237 8.13522 25.2327 -3.4872 -173.22 -0.975514 -1.45769 4.54188e-006 -4.6773e-006 -1.13608 -1.88138 -8.92985 0.134538 1.73906e-006 2.8036e-007 -0.175933 19.9979 69.4835 -20.8632 -8.13236 25.2329 3.48597 
54.6471 91.5456 9.49258 -3.60231 -1.72412 -0.241095 1.01913 -0.646742 -0.381754 2.03866 2.70072 -0.884321 2.05164 4.3451 -0.919228 -9.35154 19.9304 1.79107 7.42449 -10.765 -0.198148 68.396 6.37756 2.12143 105.729 4.46176 14.4291 -3.3499e-005 -6.17754e-007 -3.20489e-006 9.28158 16.0523 -2.5525 -3.53652e-006 -1.52292e-006 -3.01027 8.02904 -4.95146 0.697674 -69.7746 1.04218 0.746825 -106.958 9.90863 -21.7057 1.21616e-006 1.18563e-006 3.16872e-006 -10.6287 7.02729 1.17413 1.49246e-005 -2.18809e-006 3.00604 -8.02893 -4.95146 -0.697678 -179.159 0.775364 -1.71772 -180 7.01555e-015 178.958 178.161 5.47736 179.905 -1.49799e-006 -6.72004e-007 0.0317009 -18.435 67.5985 19.2125 8.13522 25.2327 -3.4872 -173.212 -0.916688 -1.45582 4.54188e-006 -4.6773e-006 -1.13549 -1.87415 -8.97821 0.1358 1.73906e-006 2.8036e-007 -0.176768 20.0118 69.4978 -20.8782 -8.13236 25.2329 3.48597 
54.6424 91.5439 9.497 -3.61375 -1.69124 -0.251017 1.02089 -0.64841 -0.379681 2.04205 2.69738 -0.882871 2.055 4.34176 -0.917838 -9.32879 19.9234 1.78594 7.41297 -10.7759 -0.195974 68.4185 6.38753 2.12235 105.73 4.4824 14.4157 -3.3499e-005 -6.17754e-007 -3.20489e-006 9.28275 16.101 -2.55802 -3.53652e-006 -1.52292e-006 -3.01027 8.02904 -4.95146 0.697674 -69.7449 1.02737 0.750472 -106.999 9.91004 -21.6877 1.21616e-006 1.18563e-006 3.16872e-006 -10.6328 7.05075 1.17761 1.49246e-005 -2.18809e-006 3.00604 -8.02893 -4.95146 -0.697678 -179.137 0.832408 -1.74314 -180 7.01555e-015 178.959 178.179 5.50986 179.904 -1.49799e-006 -6.72004e-007 0.0317039 -18.4246 67.584 19.2011 8.13522 25.2327 -3.4872 -173.204 -0.857085 -1.45425 4.54188e-006 -4.6773e-006 -1.1349 -1.86727 -9.0266 0.137043 1.73906e-006 2.8036e-007 -0.177603 20.0255 69.5119 -20.893 -8.13236 25.2329 3.48597 
54.6499 91.5439 9.49365 -3.62516 -1.65733 -0.261235 1.02263 -0.650302 -0.377632 2.04541 2.69359 -0.881354 2.05834 4.33797 -0.91638 -9.30646 19.9171 1.78107 7.40181 -10.7873 -0.19364 68.4412 6.39784 2.12339 105.731 4.50365 14.4035 -3.3499e-005 -6.17754e-007 -3.20489e-006 9.28324 16.1481 -2.5633 -3.53652e-006 -1.52292e-006 -3.01027 8.02904 -4.95146 0.697674 -69.7159 1.0131 0.753937 -107.038 9.91134 -21.6698 1.21616e-006 1.18563e-006 3.16872e-006 -10.6372 7.07461 1.18116 1.49246e-005 -2.18809e-006 3.00604 -8.02893 -4.95146 -0.697678 -179.115 0.891098 -1.76778 -180 7.01555e-015 178.959 178.195 5.54285 179.902 -1.49799e-006 -6.72004e-007 0.0317063 -18.4138 67.569 19.1892 8.13522 25.2327 -3.4872 -173.196 -0.796238 -1.45314 4.54188e-006 -4.6773e-006 -1.13429 -1.86092 -9.07506 0.138255 1.73906e-006 2.8036e-007 -0.178437 20.039 69.5258 -20.9076 -8.13236 25.2329 3.48597 
54.6508 91.5417 9.48998 -3.63655 -1.62201 -0.27186 1.02434 -0.652503 -0.375617 2.04875 2.68919 -0.879743 2.06165 4.33357 -0.914828 -9.2847 19.9116 1.77655 7.39113 -10.7996 -0.191084 68.4642 6.4086 2.12461 105.73 4.52573 14.3927 -3.3499e-005 -6.17754e-007 -3.20489e-006 9.28279 16.193 -2.56824 -3.53652e-006 -1.52292e-006 -3.01027 8.02904 -4.95146 0.697674 -69.6879 0.999591 0.757152 -107.076 9.91249 -21.6518 1.21616e-006 1.18563e-006 3.16872e-006 -10.6419 7.099 1.18481 1.49246e-005 -2.18809e-006 3.00604 -8.02893 -4.95146 -0.697678 -179.093 0.95205 -1.79137 -180 7.01555e-015 178.96 178.21 5.57653 179.9 -1.49799e-006 -6.72004e-007 0.0317077 -18.4023 67.5532 19.1766 8.13522 25.2327 -3.4872 -173.188 -0.733682 -1.45266 4.54188e-006 -4.6773e-006 -1.13365 -1.85533 -9.12362 0.139423 1.73906e-006 2.8036e-007 -0.17927 20.0523 69.5393 -20.9217 -8.13236 25.2329 3.48597 
54.6537 91.5418 9.48826 -3.64793 -1.58488 -0.283003 1.026 -0.655098 -0.373645 2.05205 2.684 -0.878015 2.06493 4.32838 -0.913156 -9.26367 19.9073 1.77248 7.38108 -10.8128 -0.188247 68.4874 6.41993 2.12606 105.728 4.54887 14.384 -3.3499e-005 -6.17754e-007 -3.20489e-006 9.28115 16.2353 -2.57277 -3.53652e-006 -1.52292e-006 -3.01027 8.02904 -4.95146 0.697674 -69.6612 0.987033 0.760047 -107.112 9.91345 -21.6339 1.21616e-006 1.18563e-006 3.16872e-006 -10.647 7.12407 1.18858 1.49246e-005 -2.18809e-006 3.00604 -8.02893 -4.95146 -0.697678 -179.073 1.01588 -1.81361 -180 7.01556e-015 178.961 178.223 5.61109 179.899 -1.49799e-006 -6.72004e-007 0.0317079 -18.3902 67.5363 19.1633 8.13522 25.2327 -3.4872 -173.18 -0.668951 -1.45298 4.54188e-006 -4.6773e-006 -1.13297 -1.8507 -9.17229 0.140536 1.73906e-006 2.8036e-007 -0.180102 20.0651 69.5524 -20.9354 -8.13236 25.2329 3.48597 
54.6572 91.5355 9.47065 -3.65927 -1.54557 -0.294775 1.02761 -0.658169 -0.371725 2.0553 2.67786 -0.876142 2.06815 4.32224 -0.911339 -9.24352 19.9044 1.76896 7.37177 -10.8272 -0.185069 68.5111 6.43195 2.12778 105.723 4.57329 14.3776 -3.3499e-005 -6.17754e-007 -3.20489e-006 9.27806 16.2744 -2.57679 -3.53652e-006 -1.52292e-006 -3.01027 8.02904 -4.95146 0.697674 -69.6359 0.975636 0.762556 -107.146 9.91417 -21.6161 1.21616e-006 1.18563e-006 3.16872e-006 -10.6527 7.14996 1.19251 1.49246e-005 -2.18809e-006 3.00604 -8.02893 -4.95146 -0.697678 -179.053 1.08321 -1.83422 -180 7.01556e-015 178.962 178.234 5.64672 179.897 -1.49799e-006 -6.72004e-007 0.0317066 -18.3771 67.5182 19.1489 8.13522 25.2327 -3.4872 -173.171 -0.601578 -1.45429 4.54188e-006 -4.6773e-006 -1.13225 -1.84723 -9.2211 0.141582 1.73906e-006 2.8036e-007 -0.180933 20.0774 69.5649 -20.9485 -8.13236 25.2329 3.48597 
54.6515 91.5264 9.46992 -3.67058 -1.50367 -0.307286 1.02916 -0.661802 -0.369865 2.0585 2.6706 -0.8741 2.07132 4.31497 -0.909352 -9.22441 19.9031 1.76609 7.36335 -10.843 -0.181489 68.5351 6.4448 2.12982 105.716 4.59924 14.374 -3.3499e-005 -6.17754e-007 -3.20489e-006 9.27324 16.3095 -2.5802 -3.53652e-006 -1.52292e-006 -3.01027 8.02904 -4.95146 0.697674 -69.6124 0.965604 0.76461 -107.176 9.91463 -21.5982 1.21616e-006 1.18563e-006 3.16872e-006 -10.6589 7.17683 1.19662 1.49246e-005 -2.18809e-006 3.00604 -8.02893 -4.95146 -0.697678 -179.034 1.15465 -1.85291 -180 7.01556e-015 178.963 178.242 5.6836 179.895 -1.49799e-006 -6.72004e-007 0.0317037 -18.3629 67.4986 19.1333 8.13522 25.2327 -3.4872 -173.162 -0.531097 -1.45675 4.54188e-006 -4.6773e-006 -1.13149 -1.84512 -9.27008 0.14255 1.73906e-006 2.8036e-007 -0.181763 20.0891 69.5769 -20.9609 -8.13236 25.2329 3.48597 
